# Blender 4.3.2
# www.blender.org
mtllib DJM.mtl
o Suzanne
v 0.805080 2.534977 -0.359769
v 0.718688 2.534977 0.510956
v 0.733508 2.464664 -0.429677
v 0.634774 2.464664 0.565437
v 0.629295 2.425602 -0.487122
v 0.521305 2.425602 0.601284
v 0.648883 2.347477 -0.288907
v 0.579461 2.347477 0.410782
v 0.749949 2.402164 -0.278880
v 0.680527 2.402164 0.420810
v 0.812144 2.503727 -0.272709
v 0.742721 2.503727 0.426981
v 0.819979 2.534977 -0.193423
v 0.765984 2.534977 0.350780
v 0.758616 2.464664 -0.128853
v 0.718506 2.464664 0.275412
v 0.660696 2.425602 -0.091464
v 0.629842 2.425602 0.219509
v 0.660757 2.613102 -0.012949
v 0.645330 2.613102 0.142538
v 0.752446 2.613102 -0.066659
v 0.724677 2.613102 0.213217
v 0.816894 2.613102 -0.162325
v 0.769069 2.613102 0.319683
v 0.819979 2.699039 -0.193423
v 0.765984 2.699039 0.350780
v 0.758616 2.761539 -0.128853
v 0.718506 2.761539 0.275412
v 0.660696 2.808414 -0.091464
v 0.629842 2.808414 0.219509
v 0.648883 2.886539 -0.288907
v 0.579461 2.886539 0.410782
v 0.749949 2.824039 -0.278880
v 0.680527 2.824039 0.420810
v 0.812144 2.730289 -0.272709
v 0.742721 2.730289 0.426981
v 0.805080 2.699039 -0.359769
v 0.718688 2.699039 0.510956
v 0.733508 2.761539 -0.429677
v 0.634774 2.761539 0.565437
v 0.629295 2.808414 -0.487122
v 0.521305 2.808414 0.601284
v 0.621460 2.613102 -0.566408
v 0.498043 2.613102 0.677484
v 0.724130 2.613102 -0.493415
v 0.613054 2.613102 0.626089
v 0.800391 2.613102 -0.391638
v 0.707828 2.613102 0.541282
v 0.816711 2.613102 -0.397869
v 0.722605 2.613102 0.550599
v 0.821400 2.706852 -0.366001
v 0.733465 2.706852 0.520273
v 0.835467 2.745914 -0.270395
v 0.766044 2.745914 0.429295
v 0.842531 2.706852 -0.183334
v 0.790078 2.706852 0.345320
v 0.838674 2.613102 -0.144463
v 0.793935 2.613102 0.306448
v 0.842531 2.527164 -0.183334
v 0.790078 2.527164 0.345320
v 0.858790 2.613102 -0.268081
v 0.789367 2.613102 0.431609
v 0.835467 2.488102 -0.270395
v 0.766044 2.488102 0.429295
v 0.821400 2.527164 -0.366001
v 0.733465 2.527164 0.520273
v 0.738561 2.800602 0.073279
v 0.816304 2.722477 0.080993
v 0.730787 1.691227 0.072508
v 0.777433 2.050602 0.077136
v 0.792981 2.183414 0.078679
v 0.715238 1.597477 0.070965
v 0.598623 2.777164 0.059395
v 0.567526 2.941227 0.056309
v -0.544203 3.269352 -0.053995
v -0.847402 2.933414 -0.084078
v -0.824079 2.441227 -0.081764
v -0.349845 1.988102 -0.034711
v 0.579807 2.183414 -0.146595
v 0.539696 2.183414 0.257670
v 0.598380 1.933414 -0.254664
v 0.536671 1.933414 0.367282
v 0.602237 1.675602 -0.293535
v 0.532815 1.675602 0.406154
v 0.564908 1.480289 -0.312941
v 0.492400 1.480289 0.417846
v 0.553277 1.425602 -0.274841
v 0.488483 1.425602 0.378203
v 0.569718 1.402164 -0.124043
v 0.534236 1.402164 0.233576
v 0.575300 1.386539 0.057081
v 0.571850 2.230289 -0.382910
v 0.485458 2.230289 0.487815
v 0.598909 2.331852 -0.576497
v 0.473948 2.331852 0.682944
v 0.524901 2.519352 -0.780111
v 0.361372 2.519352 0.868046
v 0.675699 2.800602 -0.796553
v 0.505999 2.800602 0.913799
v 0.692140 2.855289 -0.645755
v 0.551752 2.855289 0.769173
v 0.732737 2.972477 -0.421903
v 0.635545 2.972477 0.557662
v 0.762413 3.128727 -0.246240
v 0.699161 3.128727 0.391255
v 0.769537 3.089664 -0.080665
v 0.738683 3.089664 0.230309
v 0.752506 2.863102 0.011856
v 0.740165 2.863102 0.136245
v 0.785857 2.784977 -0.086896
v 0.753460 2.784977 0.239626
v 0.774226 2.675602 -0.048796
v 0.749542 2.675602 0.199983
v 0.758616 2.464664 -0.128853
v 0.718506 2.464664 0.275412
v 0.736715 2.386539 -0.303745
v 0.662664 2.386539 0.442590
v 0.717188 2.433414 -0.423446
v 0.619996 2.433414 0.556120
v 0.706978 2.558414 -0.557923
v 0.583560 2.558414 0.685969
v 0.708521 2.667789 -0.573472
v 0.582018 2.667789 0.701518
v 0.720213 2.745914 -0.533058
v 0.601423 2.745914 0.664189
v 0.757663 2.808414 -0.356623
v 0.672813 2.808414 0.498553
v 0.778793 2.839664 -0.173956
v 0.729426 2.839664 0.323600
v 0.730787 1.605289 0.072508
v 0.741586 1.652164 -0.036333
v 0.719988 1.652164 0.181348
v 0.719034 1.534977 -0.046421
v 0.695893 1.534977 0.186809
v 0.698086 1.488102 0.006456
v 0.685744 1.488102 0.130846
v 0.684141 1.480289 0.067880
v 0.746335 2.175602 0.074051
v 0.738561 2.230289 0.073279
v 0.748589 2.222477 -0.027787
v 0.728533 2.222477 0.174345
v 0.758677 2.144352 -0.050339
v 0.733994 2.144352 0.198440
v 0.747046 2.081852 -0.012238
v 0.730076 2.081852 0.158797
v 0.707931 2.324039 -0.330154
v 0.629253 2.324039 0.462828
v 0.682884 2.425602 -0.552463
v 0.561009 2.425602 0.675881
v 0.670360 2.574039 -0.663618
v 0.526887 2.574039 0.782407
v 0.726323 2.745914 -0.673767
v 0.579764 2.745914 0.803355
v 0.790892 2.784977 -0.612404
v 0.655133 2.784977 0.755877
v 0.836178 2.917789 -0.356684
v 0.749785 2.917789 0.514041
v 0.862707 3.011539 -0.228438
v 0.800999 3.011539 0.393509
v 0.867457 2.988102 -0.118054
v 0.827346 2.988102 0.286211
v 0.849655 2.800602 -0.017759
v 0.829600 2.800602 0.184373
v 0.820872 2.269352 -0.044168
v 0.796188 2.269352 0.204611
v 0.728290 1.925602 -0.139713
v 0.686637 1.925602 0.280101
v 0.708824 1.667789 -0.180899
v 0.659457 1.667789 0.316658
v 0.687044 1.550602 -0.198761
v 0.634592 1.550602 0.329893
v 0.652861 1.456852 -0.170750
v 0.606580 1.456852 0.295710
v 0.645919 1.441227 -0.100781
v 0.613522 1.441227 0.225741
v 0.637495 1.425602 0.063252
v 0.723012 2.417789 0.071737
v 0.761884 2.581852 0.075593
v 0.770958 2.847477 -0.253242
v 0.706164 2.847477 0.399801
v 0.762534 2.511539 -0.089210
v 0.730137 2.511539 0.237311
v 0.767223 2.581852 -0.057342
v 0.740997 2.581852 0.206986
v 0.742357 1.683414 -0.044107
v 0.719216 1.683414 0.189123
v 0.754049 1.925602 -0.003693
v 0.738622 1.925602 0.151794
v 0.746335 1.925602 0.074051
v 0.738561 2.042789 0.073279
v 0.786689 2.097477 -0.016156
v 0.768176 2.097477 0.170428
v 0.806094 2.144352 -0.053485
v 0.779868 2.144352 0.210842
v 0.788232 2.238102 -0.031705
v 0.766634 2.238102 0.185977
v 0.781289 2.245914 0.038264
v 0.773576 2.245914 0.116008
v 0.824079 2.167789 0.081764
v 0.813158 2.222477 0.033576
v 0.803902 2.222477 0.126867
v 0.817786 2.214664 -0.013070
v 0.799274 2.214664 0.173513
v 0.834878 2.144352 -0.027076
v 0.813280 2.144352 0.190605
v 0.808469 2.120914 0.001707
v 0.793042 2.120914 0.157193
v 0.800756 2.081852 0.079450
v 0.577432 2.058414 -0.201786
v 0.526522 2.058414 0.311319
v 0.723662 2.128727 -0.093067
v 0.691265 2.128727 0.233455
v 0.725205 2.058414 -0.108616
v 0.689722 2.058414 0.249003
v 0.575118 2.120914 -0.178463
v 0.528836 2.120914 0.287996
v 0.684141 1.495914 0.067880
v 0.688769 1.503727 0.021234
v 0.679513 1.503727 0.114526
v 0.716720 1.550602 -0.023098
v 0.698207 1.550602 0.163486
v 0.732269 1.628727 -0.021555
v 0.713756 1.628727 0.165028
v 0.653043 1.589664 0.064794
v 0.670074 1.620914 -0.027726
v 0.651561 1.620914 0.158858
v 0.646751 1.558414 -0.030040
v 0.628238 1.558414 0.156543
v 0.634349 1.519352 0.015834
v 0.625092 1.519352 0.109126
v 0.629721 1.511539 0.062480
v 0.794403 2.589664 -0.093899
v 0.760463 2.589664 0.248171
v 0.788171 2.527164 -0.110219
v 0.751146 2.527164 0.262949
v 0.787278 2.800602 -0.259474
v 0.720941 2.800602 0.409118
v 0.796656 2.792789 -0.195737
v 0.742661 2.792789 0.348466
v 0.811312 2.769352 -0.343449
v 0.728005 2.769352 0.496178
v 0.747453 2.722477 -0.491100
v 0.636377 2.722477 0.628403
v 0.741993 2.659977 -0.515195
v 0.626289 2.659977 0.650954
v 0.733447 2.566227 -0.508192
v 0.619286 2.566227 0.642409
v 0.762291 2.472477 -0.403269
v 0.668185 2.472477 0.545199
v 0.775586 2.433414 -0.299888
v 0.701536 2.433414 0.446447
v 0.799802 2.480289 -0.148319
v 0.755063 2.480289 0.302592
v 0.795174 2.667789 -0.101673
v 0.759691 2.667789 0.255946
v 0.798259 2.745914 -0.132771
v 0.756606 2.745914 0.287043
v 0.777251 2.730289 -0.158408
v 0.730969 2.730289 0.308052
v 0.773394 2.667789 -0.119536
v 0.734826 2.667789 0.269180
v 0.778022 2.495914 -0.166182
v 0.730198 2.495914 0.315826
v 0.760038 2.456852 -0.301431
v 0.685987 2.456852 0.444904
v 0.745200 2.488102 -0.389263
v 0.654179 2.488102 0.528108
v 0.722587 2.581852 -0.477866
v 0.614597 2.581852 0.610540
v 0.723359 2.652164 -0.485640
v 0.613826 2.652164 0.618314
v 0.728819 2.706852 -0.461546
v 0.623914 2.706852 0.595763
v 0.787217 2.761539 -0.337989
v 0.705453 2.761539 0.486090
v 0.789653 2.769352 -0.204282
v 0.734115 2.769352 0.355469
v 0.779504 2.777164 -0.260245
v 0.713167 2.777164 0.408347
v 0.766391 2.542789 -0.128082
v 0.726280 2.542789 0.276183
v 0.765619 2.597477 -0.120308
v 0.727051 2.597477 0.268409
v 0.617197 2.831852 -0.048674
v 0.595598 2.831852 0.169007
v 0.633456 3.034977 -0.133421
v 0.594888 3.034977 0.255296
v 0.624017 3.058414 -0.275673
v 0.557680 3.058414 0.392919
v 0.599802 2.925602 -0.427242
v 0.504153 2.925602 0.536775
v 0.556891 2.824039 -0.627771
v 0.422674 2.824039 0.724962
v 0.537364 2.777164 -0.747471
v 0.380006 2.777164 0.838492
v 0.449532 2.534977 -0.732633
v 0.296803 2.534977 0.806684
v 0.471434 2.370914 -0.557741
v 0.352645 2.370914 0.639505
v 0.509656 2.277164 -0.389081
v 0.423263 2.277164 0.481644
v 0.287650 3.269352 0.028540
v -0.077743 3.355289 -0.007714
v -0.668592 2.175602 -0.066337
v 0.186584 1.909977 0.018513
v 0.458685 1.394352 0.045510
v 0.342070 1.566227 0.033940
v 0.318747 1.800602 0.031626
v 0.279876 1.886539 0.027769
v 0.138499 2.605289 -0.842002
v -0.029658 2.605289 0.852801
v 0.038204 2.691227 -0.859804
v -0.131496 2.691227 0.850548
v -0.358998 2.636539 -0.812855
v -0.511727 2.636539 0.726462
v -0.654179 2.808414 -0.528108
v -0.745200 2.808414 0.389263
v 0.142477 2.324039 -0.723844
v -0.002539 2.324039 0.737729
v -0.104637 2.245914 -0.607047
v -0.221884 2.245914 0.574650
v -0.364336 2.363102 -0.679920
v -0.490840 2.363102 0.595070
v -0.627649 2.425602 -0.399862
v -0.693986 2.425602 0.268730
v 0.427406 2.019352 -0.193119
v 0.381124 2.019352 0.273341
v 0.274294 1.956852 -0.153355
v 0.238811 1.956852 0.204264
v 0.409482 1.659977 -0.249853
v 0.352402 1.659977 0.325447
v 0.413400 1.870914 -0.210210
v 0.364033 1.870914 0.287346
v 0.428888 1.456852 -0.287182
v 0.364094 1.456852 0.365861
v 0.379278 1.613102 -0.103684
v 0.351509 1.613102 0.176192
v 0.369961 1.831852 -0.088907
v 0.345277 1.831852 0.159872
v 0.451561 1.425602 -0.120065
v 0.419164 1.425602 0.206457
v 0.449186 2.089664 -0.175256
v 0.405990 2.089664 0.260106
v 0.487286 2.144352 -0.163625
v 0.445633 2.144352 0.256188
v 0.517612 2.199039 -0.152765
v 0.477502 2.199039 0.251500
v 0.184088 1.980289 -0.193708
v 0.142434 1.980289 0.226105
v -0.235015 2.058414 -0.321651
v -0.293639 2.058414 0.269198
v -0.502489 2.222477 -0.395294
v -0.570368 2.222477 0.288847
v -0.336203 3.238102 -0.488708
v -0.425681 3.238102 0.413114
v -0.025230 3.300602 -0.457853
v -0.114708 3.300602 0.443969
v 0.277969 3.222477 -0.427770
v 0.188491 3.222477 0.474052
v 0.473098 2.894352 -0.416260
v 0.382078 2.894352 0.501110
v 0.406033 2.777164 -0.689844
v 0.262560 2.777164 0.756181
v 0.342356 2.824039 -0.601952
v 0.217396 2.824039 0.657489
v 0.117672 3.074039 -0.632095
v -0.008831 3.074039 0.642894
v 0.203068 2.933414 -0.780640
v 0.045710 2.933414 0.805323
v -0.037936 2.988102 -0.804552
v -0.195294 2.988102 0.781411
v -0.131107 3.120914 -0.656779
v -0.257610 3.120914 0.618211
v -0.379885 3.050602 -0.681462
v -0.506388 3.050602 0.593527
v -0.278940 2.909977 -0.828464
v -0.436298 2.909977 0.757499
v -0.522137 2.699039 -0.672024
v -0.644012 2.699039 0.556320
v -0.496379 2.394352 -0.536004
v -0.592027 2.394352 0.428013
v -0.121140 2.699039 -0.836360
v -0.283125 2.699039 0.796249
v 0.187823 2.199039 -0.389609
v 0.107601 2.199039 0.418921
v -0.167482 2.175602 -0.448415
v -0.252332 2.175602 0.406761
v -0.145295 2.777164 -0.909414
v -0.321165 2.777164 0.863132
v -0.048025 2.230289 -0.782000
v -0.200754 2.230289 0.757317
v -0.223931 2.269352 -1.066383
v -0.429113 2.269352 1.001588
v -0.301085 2.425602 -1.317414
v -0.554091 2.425602 1.232565
v -0.286368 2.691227 -1.386612
v -0.553259 2.691227 1.303305
v -0.297939 2.878727 -1.269997
v -0.541689 2.878727 1.186690
v -0.209925 2.847477 -1.049291
v -0.412021 2.847477 0.987582
v -0.187373 2.784977 -1.039203
v -0.387927 2.784977 0.982122
v -0.271470 2.808414 -1.220266
v -0.505963 2.808414 1.143130
v -0.279305 2.659977 -1.299552
v -0.529225 2.659977 1.219330
v -0.284704 2.449039 -1.245131
v -0.523826 2.449039 1.164910
v -0.201379 2.331852 -1.056294
v -0.405018 2.331852 0.996128
v -0.050399 2.300602 -0.837192
v -0.213928 2.300602 0.810966
v -0.126661 2.730289 -0.938969
v -0.308702 2.730289 0.895772
v -0.194315 2.675602 -0.969234
v -0.380985 2.675602 0.912153
v -0.122743 2.347477 -0.899326
v -0.297071 2.347477 0.857672
v -0.262802 2.370914 -1.070239
v -0.467984 2.370914 0.997732
v -0.325890 2.464664 -1.225665
v -0.560383 2.464664 1.137730
v -0.321262 2.620914 -1.272311
v -0.565012 2.620914 1.184376
v -0.319658 2.730289 -1.209345
v -0.551066 2.730289 1.122953
v -0.256571 2.714664 -1.053919
v -0.458667 2.714664 0.982954
v -0.126600 2.659977 -0.860454
v -0.293214 2.659977 0.818801
v -0.189566 2.542789 -0.858851
v -0.354637 2.542789 0.804855
v -0.197279 2.464664 -0.781107
v -0.346923 2.464664 0.727112
v -0.191109 2.456852 -0.843302
v -0.353094 2.456852 0.789307
v -0.188794 2.386539 -0.866625
v -0.355408 2.386539 0.812630
v -0.191880 2.355289 -0.835528
v -0.352323 2.355289 0.781532
v 0.001768 2.370914 -0.729955
v -0.141705 2.370914 0.716070
v -0.100070 2.347477 -0.732208
v -0.242000 2.347477 0.698268
v -0.115619 2.409977 -0.733751
v -0.257549 2.409977 0.696725
v -0.131228 2.574039 -0.813808
v -0.288586 2.574039 0.772155
v -0.176392 2.613102 -0.912500
v -0.352262 2.613102 0.860047
v -0.230812 2.605289 -0.917899
v -0.406682 2.605289 0.854648
v -0.238526 2.355289 -0.840156
v -0.398969 2.355289 0.776904
v -0.234669 2.386539 -0.879027
v -0.402826 2.386539 0.815776
v -0.236983 2.449039 -0.855704
v -0.400512 2.449039 0.792453
v -0.243154 2.464664 -0.793510
v -0.394341 2.464664 0.730258
v -0.235440 2.542789 -0.871253
v -0.402054 2.542789 0.808002
v -0.309448 2.699039 -1.074868
v -0.514630 2.699039 0.993103
v -0.364761 2.714664 -1.229522
v -0.599255 2.714664 1.133873
v -0.365594 2.613102 -1.300262
v -0.613972 2.613102 1.203071
v -0.362447 2.456852 -1.252845
v -0.601569 2.456852 1.157196
v -0.316451 2.370914 -1.083413
v -0.523176 2.370914 1.000106
v -0.177163 2.355289 -0.904725
v -0.351491 2.355289 0.852273
v -0.247964 2.659977 -0.982408
v -0.436176 2.659977 0.914528
v -0.238587 2.480289 -0.918670
v -0.414457 2.480289 0.853876
v -0.241733 2.433414 -0.966088
v -0.426859 2.433414 0.899751
v -0.266659 2.495914 -1.031368
v -0.464128 2.495914 0.958860
v -0.254967 2.542789 -0.990953
v -0.444722 2.542789 0.921531
v -0.272891 2.605289 -1.047688
v -0.473445 2.605289 0.973637
v -0.276808 2.558414 -1.087331
v -0.485076 2.558414 1.011737
v -0.279183 2.581852 -1.142522
v -0.498250 2.581852 1.065386
v -0.281497 2.644352 -1.119200
v -0.495935 2.644352 1.042063
v -0.380960 2.808414 -1.066261
v -0.583057 2.808414 0.970612
v -0.420785 2.839664 -1.297888
v -0.667621 2.839664 1.189897
v -0.362569 2.667789 -1.409874
v -0.632545 2.667789 1.311140
v -0.399066 2.425602 -1.358539
v -0.658243 2.425602 1.253634
v -0.387192 2.284977 -1.082581
v -0.592374 2.284977 0.985390
v -0.248614 2.245914 -0.817604
v -0.404429 2.245914 0.752810
v -0.296092 2.753727 -0.892973
v -0.465792 2.753727 0.817379
vn 0.7815 -0.2008 -0.5907
vn 0.6502 -0.2008 0.7328
vn 0.5485 -0.3036 -0.7791
vn 0.3847 -0.3036 0.8717
vn 0.4838 -0.7933 -0.3696
vn 0.4017 -0.7933 0.4574
vn 0.8137 -0.5089 -0.2810
vn 0.7426 -0.5089 0.4354
vn 0.8265 -0.5394 0.1611
vn 0.8420 -0.5394 0.0045
vn 0.4396 -0.8413 0.3146
vn 0.4929 -0.8413 -0.2220
vn 0.4632 -0.3352 0.8204
vn 0.6154 -0.3352 -0.7134
vn 0.8111 -0.1940 0.5517
vn 0.9037 -0.1940 -0.3816
vn 0.8069 0.1907 0.5591
vn 0.9010 0.1907 -0.3897
vn 0.4737 0.3264 0.8180
vn 0.6252 0.3264 -0.7089
vn 0.4908 0.8173 0.3019
vn 0.5405 0.8173 -0.1995
vn 0.8031 0.5696 0.1751
vn 0.8218 0.5696 -0.0139
vn 0.7922 0.5370 -0.2899
vn 0.7198 0.5370 0.4400
vn 0.5283 0.7672 -0.3637
vn 0.4466 0.7672 0.4604
vn 0.5565 0.2952 -0.7766
vn 0.3931 0.2952 0.8708
vn 0.7773 0.1971 -0.5975
vn 0.6447 0.1971 0.7386
vn -0.4042 0.3244 -0.8552
vn -0.5644 0.3244 0.7591
vn -0.5105 0.8206 -0.2568
vn -0.5510 0.8206 0.1515
vn -0.5002 0.7806 0.3748
vn -0.4168 0.7806 -0.4657
vn -0.5449 0.3225 0.7740
vn -0.3821 0.3225 -0.8660
vn -0.5431 -0.3487 0.7638
vn -0.3824 -0.3487 -0.8557
vn -0.5002 -0.7806 0.3748
vn -0.4168 -0.7806 -0.4657
vn -0.5105 -0.8206 -0.2568
vn -0.5510 -0.8206 0.1515
vn -0.4062 -0.3510 -0.8437
vn -0.5640 -0.3510 0.7474
vn 0.9494 -0.0623 -0.3078
vn 0.8704 -0.0623 0.4884
vn 0.9612 -0.1754 -0.2131
vn 0.9006 -0.1754 0.3978
vn 0.9830 -0.1835 0.0026
vn 0.9644 -0.1835 0.1907
vn 0.9866 -0.0283 0.1606
vn 0.9989 -0.0283 0.0365
vn 0.9867 0.0260 0.1606
vn 0.9990 0.0260 0.0365
vn 0.9849 0.1729 -0.0023
vn 0.9653 0.1729 0.1958
vn 0.9637 0.1656 -0.2094
vn 0.9038 0.1656 0.3947
vn 0.9497 0.0572 -0.3079
vn 0.8707 0.0572 0.4885
vn 0.5021 -0.8616 -0.0739
vn 0.4778 -0.8616 0.1711
vn 0.4714 -0.8647 -0.1733
vn 0.4282 -0.8647 0.2625
vn 0.7218 -0.4550 -0.5215
vn 0.6053 -0.4550 0.6531
vn 0.7102 -0.0506 -0.7022
vn 0.5583 -0.0506 0.8281
vn 0.6937 0.0900 -0.7147
vn 0.5397 0.0900 0.8370
vn 0.5036 -0.8188 -0.2758
vn 0.4396 -0.8188 0.3693
vn 0.6767 -0.6629 -0.3205
vn 0.6005 -0.6629 0.4472
vn 0.6558 -0.4193 -0.6278
vn 0.5196 -0.4193 0.7444
vn 0.7206 -0.3634 -0.5905
vn 0.5905 -0.3634 0.7206
vn 0.8012 0.3707 -0.4697
vn 0.6933 0.3707 0.6180
vn 0.6179 0.6464 -0.4476
vn 0.5179 0.6464 0.5603
vn 0.6587 0.5167 -0.5469
vn 0.5384 0.5167 0.6657
vn 0.7411 0.6610 0.1178
vn 0.7498 0.6610 0.0301
vn 0.5365 0.3187 0.7814
vn 0.6796 0.3187 -0.6607
vn 0.5271 0.5554 0.6432
vn 0.6432 0.5554 -0.5271
vn 0.7975 -0.3909 -0.4596
vn 0.6917 -0.3909 0.6073
vn 0.8728 -0.4690 -0.1352
vn 0.8292 -0.4690 0.3041
vn 0.8310 -0.5321 0.1622
vn 0.8467 -0.5321 0.0042
vn 0.7372 -0.6575 0.1560
vn 0.7534 -0.6575 -0.0081
vn 0.8231 -0.5667 0.0357
vn 0.8141 -0.5667 0.1267
vn 0.9594 -0.2130 -0.1846
vn 0.9045 -0.2130 0.3695
vn 0.9395 -0.1824 -0.2900
vn 0.8642 -0.1824 0.4689
vn 0.9257 -0.2878 -0.2455
vn 0.8594 -0.2878 0.4227
vn 0.9572 0.0603 -0.2831
vn 0.8829 0.0603 0.4657
vn 0.9359 0.2680 0.2287
vn 0.9626 0.2680 -0.0404
vn 0.8453 -0.4321 -0.3142
vn 0.7671 -0.4321 0.4741
vn 0.9647 -0.2474 -0.0908
vn 0.9280 -0.2474 0.2785
vn 0.9770 -0.1948 0.0870
vn 0.9750 -0.1948 0.1067
vn 0.7174 -0.6966 -0.0012
vn 0.7032 -0.6966 0.1422
vn 0.8131 -0.5723 -0.1066
vn 0.7763 -0.5723 0.2643
vn 0.9361 -0.2708 -0.2244
vn 0.8738 -0.2708 0.4039
vn 0.9772 -0.0265 -0.2109
vn 0.9167 -0.0265 0.3988
vn 0.9638 -0.1306 -0.2325
vn 0.8993 -0.1306 0.4174
vn 0.9920 0.0574 0.1122
vn 0.9947 0.0574 0.0850
vn 0.9927 -0.0656 0.1011
vn 0.9932 -0.0656 0.0959
vn 0.9951 -0.0000 0.0987
vn 0.0367 -0.5744 -0.8178
vn -0.1247 -0.5744 0.8090
vn -0.1196 0.2297 -0.9659
vn -0.3071 0.2297 0.9236
vn -0.4022 0.9073 -0.1228
vn -0.4185 0.9073 0.0414
vn 0.2160 0.3555 0.9094
vn 0.3905 0.3555 -0.8492
vn 0.2623 -0.8797 -0.3967
vn 0.1792 -0.8797 0.4406
vn 0.7909 -0.5747 -0.2103
vn 0.7341 -0.5747 0.3616
vn 0.3911 0.6019 0.6962
vn 0.5203 0.6019 -0.6058
vn 0.6125 0.7892 -0.0450
vn 0.5917 0.7892 0.1645
vn 0.6552 0.2916 -0.6969
vn 0.5055 0.2916 0.8121
vn 0.6189 -0.7130 -0.3294
vn 0.5421 -0.7130 0.4446
vn 0.9716 0.2314 0.0499
vn 0.9624 0.2314 0.1420
vn 0.9140 -0.4018 0.0570
vn 0.9074 -0.4018 0.1237
vn 0.8326 -0.1610 0.5300
vn 0.9205 -0.1610 -0.3560
vn 0.8471 -0.4364 0.3033
vn 0.8902 -0.4364 -0.1310
vn 0.9301 -0.1290 -0.3439
vn 0.8444 -0.1290 0.5200
vn 0.9774 0.0501 -0.2053
vn 0.9180 0.0501 0.3933
vn 0.5773 0.3010 -0.7590
vn 0.4169 0.3010 0.8576
vn 0.4938 0.2574 -0.8306
vn 0.3209 0.2574 0.9114
vn 0.3971 0.1601 -0.9037
vn 0.2118 0.1601 0.9641
vn 0.7413 -0.6539 -0.1513
vn 0.6971 -0.6539 0.2940
vn 0.9478 -0.1997 0.2484
vn 0.9782 -0.1997 -0.0573
vn 0.9248 -0.1025 0.3664
vn 0.9788 -0.1025 -0.1775
vn 0.9615 0.1952 0.1935
vn 0.9808 0.1952 -0.0008
vn 0.2543 0.9494 0.1842
vn 0.2856 0.9494 -0.1307
vn 0.0637 0.7082 0.7032
vn 0.2006 0.7082 -0.6769
vn -0.0987 -0.0000 0.9951
vn 0.0987 -0.0000 -0.9951
vn 0.1477 -0.9450 -0.2920
vn 0.0874 -0.9450 0.3153
vn 0.9523 -0.2981 0.0645
vn 0.9465 -0.2981 0.1239
vn 0.9365 -0.3479 -0.0430
vn 0.9098 -0.3479 0.2262
vn 0.7616 -0.2755 0.5866
vn 0.8620 -0.2755 -0.4255
vn 0.8798 -0.0419 0.4735
vn 0.9557 -0.0419 -0.2913
vn 0.9520 0.0374 0.3038
vn 0.9931 0.0374 -0.1108
vn 0.6077 -0.4767 0.6352
vn 0.7206 -0.4767 -0.5034
vn 0.6269 -0.7531 0.1998
vn 0.6539 -0.7531 -0.0727
vn 0.7184 -0.6071 -0.3396
vn 0.6377 -0.6071 0.4741
vn 0.7603 -0.4130 -0.5014
vn 0.6469 -0.4130 0.6410
vn 0.8703 -0.0968 -0.4830
vn 0.7584 -0.0968 0.6446
vn 0.8652 0.1180 -0.4873
vn 0.7526 0.1180 0.6478
vn 0.7162 0.5621 -0.4136
vn 0.6210 0.5621 0.5463
vn 0.7693 0.6114 -0.1854
vn 0.7179 0.6114 0.3329
vn 0.9299 0.3607 -0.0725
vn 0.8975 0.3607 0.2538
vn 0.9617 0.2495 0.1133
vn 0.9652 0.2495 0.0779
vn 0.8763 -0.4166 -0.2420
vn 0.8116 -0.4166 0.4095
vn 0.9468 -0.2610 -0.1885
vn 0.8913 -0.2610 0.3709
vn 0.6863 -0.6514 0.3235
vn 0.7365 -0.6514 -0.1824
vn 0.5281 -0.8455 0.0785
vn 0.5333 -0.8455 0.0268
vn 0.8599 -0.2606 0.4389
vn 0.9294 -0.2606 -0.2613
vn 0.8965 -0.0110 0.4430
vn 0.9660 -0.0110 -0.2582
vn 0.8604 0.4608 0.2177
vn 0.8864 0.4608 -0.0444
vn 0.7798 0.6159 0.1118
vn 0.7866 0.6159 0.0437
vn 0.7597 0.5836 -0.2867
vn 0.6886 0.5836 0.4304
vn 0.7317 0.5300 -0.4286
vn 0.6332 0.5300 0.5641
vn 0.7292 -0.3333 -0.5976
vn 0.5976 -0.3333 0.7292
vn 0.6506 -0.0731 -0.7559
vn 0.4893 -0.0731 0.8690
vn 0.6842 0.1161 -0.7200
vn 0.5294 0.1161 0.8404
vn -0.2973 0.8111 0.5037
vn -0.1926 0.8111 -0.5523
vn -0.4552 0.3695 0.8101
vn -0.2871 0.3695 -0.8838
vn -0.4552 0.8675 0.2006
vn -0.4069 0.8675 -0.2862
vn -0.2430 0.7465 -0.6194
vn -0.3600 0.7465 0.5596
vn -0.2739 0.8758 -0.3975
vn -0.3466 0.8758 0.3360
vn -0.2587 0.9151 -0.3092
vn -0.3144 0.9151 0.2523
vn -0.4121 0.1340 -0.9012
vn -0.5812 0.1340 0.8027
vn -0.3827 -0.7233 -0.5748
vn -0.4882 -0.7233 0.4884
vn -0.3967 -0.8131 -0.4261
vn -0.4727 -0.8131 0.3399
vn -0.7531 -0.5806 -0.3094
vn -0.7993 -0.5806 0.1554
vn -0.9389 -0.0583 -0.3392
vn -0.9873 -0.0583 0.1481
vn -0.8679 -0.4535 -0.2030
vn -0.8908 -0.4535 0.0285
vn -0.1268 -0.9836 -0.1283
vn -0.1495 -0.9836 0.1009
vn -0.2132 -0.9669 -0.1401
vn -0.2366 -0.9669 0.0955
vn -0.1846 -0.0085 -0.9828
vn -0.3742 -0.0085 0.9273
vn -0.2306 0.1629 -0.9593
vn -0.4146 0.1629 0.8953
vn -0.9656 0.0207 -0.2592
vn -0.9977 0.0207 0.0644
vn -0.9729 -0.2177 -0.0777
vn -0.9692 -0.2177 -0.1150
vn -0.5111 -0.2926 -0.8082
vn -0.6599 -0.2926 0.6920
vn -0.2752 0.1379 -0.9514
vn -0.4568 0.1379 0.8788
vn -0.1017 0.3127 -0.9444
vn -0.2852 0.3127 0.9060
vn -0.1417 0.3376 -0.9306
vn -0.3218 0.3376 0.8846
vn 0.0325 0.3338 -0.9421
vn -0.1533 0.3338 0.9301
vn -0.4207 -0.8805 -0.2187
vn -0.4555 -0.8805 0.1318
vn -0.7586 -0.4733 -0.4479
vn -0.8318 -0.4733 0.2901
vn -0.4331 -0.8284 -0.3552
vn -0.4944 -0.8284 0.2631
vn -0.1005 -0.9515 -0.2907
vn -0.1556 -0.9515 0.2653
vn -0.1488 -0.9321 -0.3302
vn -0.2108 -0.9321 0.2945
vn 0.0358 -0.2083 -0.9774
vn -0.1569 -0.2083 0.9654
vn 0.3252 -0.5066 -0.7985
vn 0.1619 -0.5066 0.8468
vn -0.8929 -0.1158 -0.4351
vn -0.9610 -0.1158 0.2512
vn 0.2462 0.9644 -0.0964
vn 0.2225 0.9644 0.1429
vn -0.1716 0.9744 -0.1452
vn -0.1968 0.9744 0.1086
vn -0.6861 0.5947 -0.4190
vn -0.7551 0.5947 0.2760
vn -0.1031 0.8981 -0.4275
vn -0.1851 0.8981 0.3989
vn 0.7011 0.7036 -0.1159
vn 0.6647 0.7036 0.2514
vn 0.2198 0.7794 -0.5867
vn 0.1002 0.7794 0.6185
vn -0.1348 0.6806 -0.7201
vn -0.2737 0.6806 0.6796
vn -0.6472 0.2007 -0.7354
vn -0.7791 0.2007 0.5939
vn -0.7002 0.4342 -0.5667
vn -0.7979 0.4342 0.4180
vn -0.1118 0.7459 -0.6566
vn -0.2387 0.7459 0.6218
vn 0.2231 0.6788 -0.6996
vn 0.0813 0.6788 0.7298
vn 0.6147 0.3972 -0.6815
vn 0.4688 0.3972 0.7890
vn -0.1233 0.9261 -0.3567
vn -0.1910 0.9261 0.3255
vn 0.8053 0.5740 -0.1482
vn 0.7605 0.5740 0.3036
vn -0.9917 0.1046 0.0746
vn -0.9577 0.1046 -0.2681
vn 0.4036 0.9150 -0.0026
vn 0.3952 0.9150 0.0819
vn 0.9487 0.1847 0.2565
vn 0.9806 0.1847 -0.0651
vn 0.1448 0.1973 -0.9696
vn -0.0486 0.1973 0.9791
vn 0.3999 0.0918 -0.9119
vn 0.2129 0.0918 0.9727
vn 0.0309 0.1905 -0.9812
vn -0.1625 0.1905 0.9681
vn -0.0083 0.0312 -0.9995
vn -0.2046 0.0312 0.9784
vn 0.1201 -0.7008 -0.7031
vn -0.0204 -0.7008 0.7130
vn 0.1210 -0.9243 -0.3620
vn 0.0475 -0.9243 0.3787
vn 0.2740 -0.8644 -0.4215
vn 0.1858 -0.8644 0.4672
vn 0.2992 -0.7578 -0.5799
vn 0.1794 -0.7578 0.6274
vn 0.3118 -0.6368 -0.7051
vn 0.1672 -0.6368 0.7527
vn 0.8751 -0.4499 -0.1782
vn 0.8230 -0.4499 0.3467
vn -0.7086 -0.3181 -0.6299
vn -0.8186 -0.3181 0.4783
vn -0.7656 -0.2807 -0.5788
vn -0.8644 -0.2807 0.4171
vn -0.3869 -0.8494 -0.3589
vn -0.4499 -0.8494 0.2759
vn -0.2069 -0.6356 -0.7438
vn -0.3490 -0.6356 0.6887
vn -0.6946 -0.4408 -0.5686
vn -0.7928 -0.4408 0.4210
vn 0.8861 0.3807 -0.2644
vn 0.8169 0.3807 0.4333
vn 0.9138 0.1715 -0.3681
vn 0.8237 0.1715 0.5405
vn 0.9811 0.1055 -0.1622
vn 0.9301 0.1055 0.3518
vn 0.9856 -0.0802 -0.1489
vn 0.9371 -0.0802 0.3397
vn 0.9252 -0.0599 -0.3748
vn 0.8335 -0.0599 0.5493
vn 0.7789 -0.3045 -0.5482
vn 0.6560 -0.3045 0.6906
vn 0.6442 0.6590 -0.3883
vn 0.5553 0.6590 0.5073
vn 0.4597 0.8309 0.3136
vn 0.5124 0.8309 -0.2171
vn 0.4268 0.2291 0.8748
vn 0.5904 0.2291 -0.7739
vn 0.7171 -0.3566 0.5988
vn 0.8208 -0.3566 -0.4462
vn 0.7288 -0.5665 -0.3846
vn 0.6390 -0.5665 0.5203
vn 0.6216 -0.4497 -0.6414
vn 0.4835 -0.4497 0.7510
vn -0.0408 -0.6827 -0.7296
vn -0.1834 -0.6827 0.7074
vn 0.9153 0.2860 0.2837
vn 0.9532 0.2860 -0.0983
vn -0.1144 -0.3734 -0.9206
vn -0.2931 -0.3734 0.8802
vn 0.9879 0.1551 -0.0059
vn 0.9675 0.1551 0.1999
vn 0.3596 0.9318 -0.0488
vn 0.3430 0.9318 0.1185
vn 0.8193 -0.0883 -0.5665
vn 0.6920 -0.0883 0.7164
vn 0.8066 0.4740 -0.3530
vn 0.7215 0.4740 0.5046
vn 0.4238 -0.4847 -0.7651
vn 0.2652 -0.4847 0.8335
vn 0.7553 -0.4128 -0.5090
vn 0.6405 -0.4128 0.6475
vn 0.7372 -0.4305 -0.5208
vn 0.6205 -0.4305 0.6555
vn 0.0381 -0.1804 -0.9829
vn -0.1558 -0.1804 0.9712
vn -0.0270 -0.3965 -0.9176
vn -0.2068 -0.3965 0.8944
vn 0.0263 -0.0181 -0.9995
vn -0.1706 -0.0181 0.9852
vn 0.2637 -0.6543 -0.7087
vn 0.1193 -0.6543 0.7467
vn 0.1844 -0.6079 -0.7723
vn 0.0291 -0.6079 0.7935
vn 0.1858 -0.7022 -0.6873
vn 0.0471 -0.7022 0.7104
vn -0.0327 0.9816 -0.1882
vn -0.0690 0.9816 0.1781
vn 0.2201 0.3301 -0.9179
vn 0.0354 0.3301 0.9433
vn 0.1205 -0.7463 -0.6546
vn -0.0105 -0.7463 0.6656
vn 0.0755 0.9970 0.0161
vn 0.0772 0.9970 -0.0009
vn 0.3953 -0.7061 -0.5875
vn 0.2722 -0.7061 0.6538
vn 0.3840 -0.8925 -0.2366
vn 0.3300 -0.8925 0.3074
vn -0.3011 -0.5080 0.8070
vn -0.1367 -0.5080 -0.8504
vn -0.5780 0.2377 0.7807
vn -0.4133 0.2377 -0.8790
vn -0.3085 0.7847 0.5376
vn -0.1968 0.7847 -0.5878
vn 0.0613 0.9962 0.0623
vn 0.0724 0.9962 -0.0491
vn 0.9987 0.0222 -0.0461
vn 0.9702 0.0222 0.2415
vn 0.9704 0.0645 -0.2328
vn 0.9057 0.0645 0.4189
vn 0.9758 0.0232 -0.2174
vn 0.9141 0.0232 0.4049
vn 0.9970 0.0274 -0.0729
vn 0.9632 0.0274 0.2674
vn 0.9230 0.2849 -0.2588
vn 0.8541 0.2849 0.4351
vn 0.9507 -0.0343 -0.3082
vn 0.8716 -0.0343 0.4890
vn 0.9852 -0.0603 -0.1607
vn 0.9344 -0.0603 0.3512
vn 0.9993 -0.0106 0.0351
vn 0.9867 -0.0106 0.1619
vn 0.5712 0.7039 0.4222
vn 0.6430 0.7039 -0.3017
vn 0.8343 0.0355 -0.5502
vn 0.7099 0.0355 0.7034
vn 0.9116 -0.2002 -0.3590
vn 0.8233 -0.2002 0.5311
vn 0.8808 -0.2141 -0.4223
vn 0.7807 -0.2141 0.5871
vn 0.8572 0.2619 -0.4434
vn 0.7534 0.2619 0.6032
vn 0.7837 0.5802 -0.2217
vn 0.7249 0.5802 0.3713
vn -0.0709 -0.9924 -0.1005
vn -0.0893 -0.9924 0.0846
vn 0.0574 -0.8657 -0.4973
vn -0.0415 -0.8657 0.4989
vn 0.3651 -0.2497 -0.8968
vn 0.1818 -0.2497 0.9511
vn 0.0453 0.5424 -0.8389
vn -0.1205 0.5424 0.8314
vn -0.2809 0.9367 0.2088
vn -0.2344 0.9367 -0.2599
vn -0.1723 0.8838 0.4350
vn -0.0835 0.8838 -0.4604
vn -0.8917 -0.0098 0.4525
vn -0.7854 -0.0098 -0.6189
vn -0.9954 -0.0241 0.0932
vn -0.9576 -0.0241 -0.2870
vn -0.8697 0.0266 -0.4929
vn -0.9496 0.0266 0.3124
vn -0.0576 0.6231 0.7800
vn 0.0968 0.6231 -0.7761
vn -0.7566 -0.2063 -0.6205
vn -0.8638 -0.2063 0.4597
vn -0.3175 -0.9231 0.2171
vn -0.2687 -0.9231 -0.2753
vt 0.843250 0.588863
vt 0.833697 0.611927
vt 0.794218 0.611927
vt 0.815334 0.560948
vt 0.866314 0.937441
vt 0.866314 0.897962
vt 0.889378 0.888409
vt 0.917293 0.916324
vt 0.746541 0.611927
vt 0.781622 0.527235
vt 0.866314 0.985118
vt 0.951006 0.950037
vt 0.815334 0.662907
vt 0.781622 0.696619
vt 0.781622 0.950037
vt 0.815334 0.916325
vt 0.843250 0.634991
vt 0.843250 0.888409
vt 0.866314 0.644544
vt 0.866314 0.684023
vt 0.794218 0.865345
vt 0.833697 0.865345
vt 0.866314 0.731700
vt 0.746541 0.865345
vt 0.917293 0.662907
vt 0.951006 0.696619
vt 0.781622 0.780653
vt 0.815334 0.814366
vt 0.889378 0.634991
vt 0.843250 0.842281
vt 0.898931 0.611927
vt 0.938410 0.611927
vt 0.866314 0.793249
vt 0.866314 0.832728
vt 0.986087 0.611927
vt 0.866314 0.745572
vt 0.917294 0.560947
vt 0.951006 0.527235
vt 0.951006 0.780653
vt 0.917294 0.814365
vt 0.889378 0.588863
vt 0.889378 0.842281
vt 0.866314 0.579310
vt 0.866314 0.539831
vt 0.938410 0.865345
vt 0.898931 0.865345
vt 0.866314 0.492154
vt 0.986087 0.865345
vt 0.866314 0.585461
vt 0.847600 0.593213
vt 0.892780 0.865345
vt 0.885028 0.884059
vt 0.885028 0.593213
vt 0.885028 0.846631
vt 0.892780 0.611927
vt 0.866314 0.838879
vt 0.885028 0.630641
vt 0.847600 0.846631
vt 0.866314 0.638393
vt 0.839848 0.865345
vt 0.847600 0.630641
vt 0.847600 0.884059
vt 0.839848 0.611927
vt 0.866314 0.891811
vt 0.866314 0.611927
vt 0.866314 0.865345
vt 0.520711 0.060503
vt 0.517028 0.068490
vt 0.500000 0.064527
vt 0.500000 0.054411
vt 0.482972 0.068490
vt 0.479289 0.060503
vt 0.530457 0.065062
vt 0.522612 0.070678
vt 0.477388 0.070678
vt 0.469543 0.065062
vt 0.532878 0.067822
vt 0.526301 0.079422
vt 0.473699 0.079422
vt 0.467122 0.067822
vt 0.544695 0.083023
vt 0.529228 0.091098
vt 0.470772 0.091098
vt 0.455305 0.083023
vt 0.565647 0.115495
vt 0.537536 0.127779
vt 0.462464 0.127779
vt 0.434353 0.115495
vt 0.586916 0.172042
vt 0.626605 0.208159
vt 0.600470 0.238288
vt 0.535885 0.215568
vt 0.399530 0.238288
vt 0.373395 0.208159
vt 0.413084 0.172042
vt 0.464115 0.215568
vt 0.650908 0.240294
vt 0.636962 0.261221
vt 0.363038 0.261221
vt 0.349092 0.240294
vt 0.689501 0.268805
vt 0.655896 0.284413
vt 0.344104 0.284413
vt 0.310499 0.268805
vt 0.684517 0.317795
vt 0.659507 0.313152
vt 0.340493 0.313152
vt 0.315483 0.317795
vt 0.671357 0.334694
vt 0.649107 0.322437
vt 0.350893 0.322437
vt 0.328643 0.334694
vt 0.636775 0.370732
vt 0.613636 0.353108
vt 0.386364 0.353108
vt 0.363225 0.370732
vt 0.602261 0.395588
vt 0.594178 0.371277
vt 0.405822 0.371277
vt 0.397739 0.395588
vt 0.581044 0.398468
vt 0.577351 0.373341
vt 0.422649 0.373341
vt 0.418956 0.398468
vt 0.532016 0.387365
vt 0.539817 0.354339
vt 0.460183 0.354339
vt 0.467984 0.387365
vt 0.500000 0.382860
vt 0.500000 0.340417
vt 0.559135 0.334326
vt 0.579057 0.335646
vt 0.420943 0.335646
vt 0.440865 0.334326
vt 0.592090 0.332885
vt 0.407910 0.332885
vt 0.606163 0.325516
vt 0.393837 0.325516
vt 0.628251 0.311636
vt 0.371749 0.311636
vt 0.635551 0.300507
vt 0.364449 0.300507
vt 0.631484 0.283889
vt 0.368516 0.283889
vt 0.611331 0.264411
vt 0.388669 0.264411
vt 0.592372 0.254897
vt 0.407628 0.254897
vt 0.559669 0.267717
vt 0.440331 0.267717
vt 0.550878 0.277832
vt 0.500000 0.252445
vt 0.449122 0.277832
vt 0.544001 0.314523
vt 0.455999 0.314523
vt 0.500000 0.295691
vt 0.543637 0.293371
vt 0.456363 0.293371
vt 0.506819 0.075382
vt 0.500000 0.073497
vt 0.493181 0.075382
vt 0.511782 0.080633
vt 0.488218 0.080633
vt 0.512172 0.093457
vt 0.487828 0.093457
vt 0.514257 0.133422
vt 0.513874 0.097191
vt 0.486126 0.097191
vt 0.485743 0.133422
vt 0.520226 0.164615
vt 0.500000 0.157864
vt 0.500000 0.134352
vt 0.479774 0.164615
vt 0.500000 0.100063
vt 0.500000 0.091346
vt 0.530258 0.180239
vt 0.521901 0.181560
vt 0.517666 0.172353
vt 0.482334 0.172353
vt 0.478099 0.181560
vt 0.469742 0.180239
vt 0.523673 0.198817
vt 0.518957 0.194728
vt 0.481043 0.194728
vt 0.476327 0.198817
vt 0.500000 0.203867
vt 0.508211 0.197295
vt 0.491789 0.197295
vt 0.500000 0.197278
vt 0.500000 0.192167
vt 0.500000 0.165170
vt 0.513538 0.176949
vt 0.500000 0.171718
vt 0.486462 0.176949
vt 0.500000 0.186182
vt 0.508818 0.192407
vt 0.491182 0.192407
vt 0.515232 0.190709
vt 0.484768 0.190709
vt 0.516908 0.181873
vt 0.483092 0.181873
vt 0.544209 0.172814
vt 0.455791 0.172814
vt 0.541327 0.154899
vt 0.458673 0.154899
vt 0.578661 0.139176
vt 0.421339 0.139176
vt 0.583245 0.154155
vt 0.416755 0.154155
vt 0.500000 0.089977
vt 0.509911 0.090724
vt 0.490089 0.090724
vt 0.509713 0.082236
vt 0.490287 0.082236
vt 0.505196 0.077083
vt 0.494804 0.077083
vt 0.500000 0.075473
vt 0.503445 0.080840
vt 0.500000 0.080320
vt 0.496555 0.080840
vt 0.506660 0.083289
vt 0.493340 0.083289
vt 0.506822 0.086791
vt 0.493178 0.086791
vt 0.500000 0.085637
vt 0.562361 0.284338
vt 0.559190 0.294882
vt 0.437639 0.284338
vt 0.440810 0.294882
vt 0.563180 0.307151
vt 0.436820 0.307151
vt 0.570458 0.318697
vt 0.429542 0.318697
vt 0.569243 0.278245
vt 0.430757 0.278245
vt 0.589914 0.271772
vt 0.410086 0.271772
vt 0.602190 0.277180
vt 0.397810 0.277180
vt 0.617110 0.287175
vt 0.382890 0.287175
vt 0.618074 0.299197
vt 0.381926 0.299197
vt 0.615871 0.307438
vt 0.384129 0.307438
vt 0.598424 0.313725
vt 0.401576 0.313725
vt 0.590828 0.319797
vt 0.409172 0.319797
vt 0.582130 0.320991
vt 0.417870 0.320991
vt 0.578615 0.309394
vt 0.583998 0.312892
vt 0.421385 0.309394
vt 0.416002 0.312892
vt 0.589656 0.312336
vt 0.410344 0.312336
vt 0.596347 0.309249
vt 0.403653 0.309249
vt 0.606014 0.302517
vt 0.393986 0.302517
vt 0.607735 0.297520
vt 0.392265 0.297520
vt 0.606985 0.291216
vt 0.393015 0.291216
vt 0.598275 0.283083
vt 0.401725 0.283083
vt 0.589866 0.280167
vt 0.410134 0.280167
vt 0.576352 0.284624
vt 0.423648 0.284624
vt 0.572831 0.289915
vt 0.427169 0.289915
vt 0.573307 0.303342
vt 0.426693 0.303342
vt 0.572447 0.295716
vt 0.427553 0.295716
vt 0.529647 0.428636
vt 0.500000 0.428636
vt 0.470353 0.428636
vt 0.584616 0.428636
vt 0.415384 0.428636
vt 0.622301 0.417889
vt 0.377699 0.417889
vt 0.666214 0.388954
vt 0.333786 0.388954
vt 0.701481 0.344467
vt 0.298519 0.344467
vt 0.712163 0.315527
vt 0.287837 0.315527
vt 0.704305 0.260225
vt 0.295695 0.260225
vt 0.672947 0.224880
vt 0.327053 0.224880
vt 0.640497 0.198841
vt 0.359503 0.198841
vt 0.603553 0.023452
vt 0.625128 0.029461
vt 0.635753 0.082198
vt 0.598617 0.056841
vt 0.364247 0.082198
vt 0.374872 0.029461
vt 0.396447 0.023452
vt 0.401383 0.056841
vt 0.546781 0.009442
vt 0.556354 0.040906
vt 0.453219 0.009442
vt 0.443646 0.040906
vt 0.500000 0.033223
vt 0.527159 0.049514
vt 0.472841 0.049514
vt 0.537222 0.060794
vt 0.462778 0.060794
vt 0.558499 0.065137
vt 0.441501 0.065137
vt 0.588127 0.085177
vt 0.411873 0.085177
vt 0.607239 0.113940
vt 0.392761 0.113940
vt 0.612663 0.133675
vt 0.605467 0.151503
vt 0.394533 0.151503
vt 0.387337 0.133675
vt 0.600708 0.162985
vt 0.399292 0.162985
vt 0.922374 0.064228
vt 0.859647 0.117994
vt 0.823287 0.101559
vt 0.861342 0.027230
vt 0.176713 0.101559
vt 0.140353 0.117994
vt 0.077626 0.064228
vt 0.138658 0.027230
vt 0.765863 0.087001
vt 0.774604 0.010837
vt 0.234137 0.087001
vt 0.225396 0.010837
vt 0.661952 0.087561
vt 0.647010 0.028716
vt 0.338048 0.087561
vt 0.352990 0.028716
vt 0.743592 0.198572
vt 0.766410 0.233065
vt 0.256408 0.198572
vt 0.233590 0.233065
vt 0.987633 0.154243
vt 0.889478 0.177602
vt 0.110522 0.177602
vt 0.012367 0.154243
vt 0.899807 0.420886
vt 0.844317 0.347370
vt 0.881169 0.309153
vt 0.958963 0.357385
vt 0.118831 0.309153
vt 0.155683 0.347370
vt 0.100193 0.420886
vt 0.041037 0.357385
vt 0.903302 0.261367
vt 0.999860 0.253531
vt 0.096698 0.261367
vt 0.000140 0.253531
vt 0.724763 0.340212
vt 0.744725 0.304629
vt 0.766113 0.319494
vt 0.255275 0.304629
vt 0.275237 0.340212
vt 0.233887 0.319494
vt 0.793427 0.280495
vt 0.826663 0.297810
vt 0.206573 0.280495
vt 0.173337 0.297810
vt 0.823620 0.254612
vt 0.855331 0.267956
vt 0.176380 0.254612
vt 0.144669 0.267956
vt 0.835860 0.225225
vt 0.868309 0.233525
vt 0.164140 0.225225
vt 0.131691 0.233525
vt 0.813499 0.190705
vt 0.851288 0.181145
vt 0.148712 0.181145
vt 0.186501 0.190705
vt 0.772263 0.374010
vt 0.227737 0.374010
vt 0.744519 0.390057
vt 0.255481 0.390057
vt 0.824765 0.470987
vt 0.175235 0.470987
vt 0.792141 0.464714
vt 0.742181 0.461543
vt 0.726855 0.432574
vt 0.273145 0.432574
vt 0.257819 0.461543
vt 0.207859 0.464714
vt 0.795638 0.489991
vt 0.204362 0.489991
vt 0.786137 0.227788
vt 0.213863 0.227788
vt 0.802950 0.203415
vt 0.197050 0.203415
vt 0.769334 0.128771
vt 0.691484 0.146686
vt 0.230666 0.128771
vt 0.308516 0.146686
vt 0.780113 0.169386
vt 0.219887 0.169386
vt 0.803789 0.171181
vt 0.830917 0.139518
vt 0.169083 0.139518
vt 0.196211 0.171181
vt 0.574628 0.959188
vt 0.464516 0.959188
vt 0.477326 0.891852
vt 0.545439 0.884582
vt 0.272900 0.891852
vt 0.285710 0.959188
vt 0.175598 0.959188
vt 0.204787 0.884582
vt 0.605134 0.846978
vt 0.715894 0.897069
vt 0.145092 0.846978
vt 0.034332 0.897069
vt 0.605360 0.784410
vt 0.683874 0.757011
vt 0.144866 0.784410
vt 0.066352 0.757011
vt 0.574835 0.744212
vt 0.617867 0.719156
vt 0.175391 0.744212
vt 0.132359 0.719156
vt 0.534996 0.712528
vt 0.568728 0.682132
vt 0.215230 0.712528
vt 0.181498 0.682132
vt 0.483006 0.686791
vt 0.508539 0.641024
vt 0.267220 0.686791
vt 0.241687 0.641024
vt 0.513415 0.736977
vt 0.478880 0.719593
vt 0.271346 0.719593
vt 0.236811 0.736977
vt 0.541117 0.760754
vt 0.209109 0.760754
vt 0.557599 0.789442
vt 0.192627 0.789442
vt 0.553841 0.821849
vt 0.196385 0.821849
vt 0.524671 0.842380
vt 0.225555 0.842380
vt 0.485193 0.845321
vt 0.265033 0.845321
vt 0.786150 0.181127
vt 0.770208 0.191225
vt 0.213850 0.181127
vt 0.229792 0.191225
vt 0.408153 0.587507
vt 0.409610 0.674022
vt 0.342073 0.587507
vt 0.340616 0.674022
vt 0.400301 0.910556
vt 0.414155 0.878318
vt 0.336071 0.878318
vt 0.349925 0.910556
vt 0.443630 0.713731
vt 0.306596 0.713731
vt 0.429725 0.728622
vt 0.392812 0.710774
vt 0.357414 0.710774
vt 0.320501 0.728622
vt 0.422979 0.754609
vt 0.432640 0.746527
vt 0.327247 0.754609
vt 0.317586 0.746527
vt 0.427719 0.796173
vt 0.391578 0.815187
vt 0.358648 0.815187
vt 0.322507 0.796173
vt 0.448277 0.830976
vt 0.301949 0.830976
vt 0.797710 0.195652
vt 0.802580 0.199758
vt 0.197420 0.199758
vt 0.202290 0.195652
vt 0.789609 0.184671
vt 0.210391 0.184671
vt 0.466042 0.804091
vt 0.490498 0.816075
vt 0.284184 0.804091
vt 0.259728 0.816075
vt 0.448042 0.783921
vt 0.302184 0.783921
vt 0.438745 0.764960
vt 0.311481 0.764960
vt 0.445216 0.756351
vt 0.305010 0.756351
vt 0.449819 0.743458
vt 0.300407 0.743458
vt 0.456307 0.732687
vt 0.293919 0.732687
vt 0.475471 0.740871
vt 0.274755 0.740871
vt 0.514211 0.817769
vt 0.236015 0.817769
vt 0.527961 0.808598
vt 0.222265 0.808598
vt 0.530079 0.790754
vt 0.220147 0.790754
vt 0.518620 0.772385
vt 0.231606 0.772385
vt 0.498668 0.755033
vt 0.251558 0.755033
vt 0.468029 0.756171
vt 0.459660 0.770459
vt 0.282197 0.756171
vt 0.290566 0.770459
vt 0.487167 0.769899
vt 0.477354 0.785393
vt 0.263059 0.769899
vt 0.272872 0.785393
vt 0.504617 0.782999
vt 0.496545 0.797122
vt 0.245609 0.782999
vt 0.253681 0.797122
vt 0.516137 0.792591
vt 0.513713 0.804019
vt 0.234089 0.792591
vt 0.236513 0.804019
vt 0.574269 0.607668
vt 0.613510 0.655816
vt 0.175957 0.607668
vt 0.136716 0.655816
vt 0.644031 0.693270
vt 0.106195 0.693270
vt 0.668163 0.712097
vt 0.082063 0.712097
vt 0.727131 0.698475
vt 0.676584 0.686010
vt 0.023095 0.698475
vt 0.073642 0.686010
vt 0.729804 0.624370
vt 0.667013 0.640198
vt 0.020422 0.624370
vt 0.083213 0.640198
vt 0.721292 0.572934
vt 0.648152 0.594596
vt 0.028934 0.572934
vt 0.102074 0.594596
vt 0.630034 0.557583
vt 0.717709 0.538143
vt 0.032517 0.538143
vt 0.120192 0.557583
vt 0.526877 0.539235
vt 0.223349 0.539235
s 0
usemtl Material.001
f 47/1/1 1/2/1 3/3/1 45/4/1
f 4/5/2 2/6/2 48/7/2 46/8/2
f 45/4/3 3/3/3 5/9/3 43/10/3
f 6/11/4 4/5/4 46/8/4 44/12/4
f 3/3/5 9/13/5 7/14/5 5/9/5
f 8/15/6 10/16/6 4/5/6 6/11/6
f 1/2/7 11/17/7 9/13/7 3/3/7
f 10/16/8 12/18/8 2/6/8 4/5/8
f 11/17/9 13/19/9 15/20/9 9/13/9
f 16/21/10 14/22/10 12/18/10 10/16/10
f 9/13/11 15/20/11 17/23/11 7/14/11
f 18/24/12 16/21/12 10/16/12 8/15/12
f 15/20/13 21/25/13 19/26/13 17/23/13
f 20/27/14 22/28/14 16/21/14 18/24/14
f 13/19/15 23/29/15 21/25/15 15/20/15
f 22/28/16 24/30/16 14/22/16 16/21/16
f 23/29/17 25/31/17 27/32/17 21/25/17
f 28/33/18 26/34/18 24/30/18 22/28/18
f 21/25/19 27/32/19 29/35/19 19/26/19
f 30/36/20 28/33/20 22/28/20 20/27/20
f 27/32/21 33/37/21 31/38/21 29/35/21
f 32/39/22 34/40/22 28/33/22 30/36/22
f 25/31/23 35/41/23 33/37/23 27/32/23
f 34/40/24 36/42/24 26/34/24 28/33/24
f 35/41/25 37/43/25 39/44/25 33/37/25
f 40/45/26 38/46/26 36/42/26 34/40/26
f 33/37/27 39/44/27 41/47/27 31/38/27
f 42/48/28 40/45/28 34/40/28 32/39/28
f 39/44/29 45/4/29 43/10/29 41/47/29
f 44/12/30 46/8/30 40/45/30 42/48/30
f 37/43/31 47/1/31 45/4/31 39/44/31
f 46/8/32 48/7/32 38/46/32 40/45/32
f 47/1/33 37/43/33 51/49/33 49/50/33
f 52/51/34 38/46/34 48/7/34 50/52/34
f 37/43/35 35/41/35 53/53/35 51/49/35
f 54/54/36 36/42/36 38/46/36 52/51/36
f 35/41/37 25/31/37 55/55/37 53/53/37
f 56/56/38 26/34/38 36/42/38 54/54/38
f 25/31/39 23/29/39 57/57/39 55/55/39
f 58/58/40 24/30/40 26/34/40 56/56/40
f 23/29/41 13/19/41 59/59/41 57/57/41
f 60/60/42 14/22/42 24/30/42 58/58/42
f 13/19/43 11/17/43 63/61/43 59/59/43
f 64/62/44 12/18/44 14/22/44 60/60/44
f 11/17/45 1/2/45 65/63/45 63/61/45
f 66/64/46 2/6/46 12/18/46 64/62/46
f 1/2/47 47/1/47 49/50/47 65/63/47
f 50/52/48 48/7/48 2/6/48 66/64/48
f 61/65/49 65/63/49 49/50/49
f 50/52/50 66/64/50 62/66/50
f 63/61/51 65/63/51 61/65/51
f 62/66/52 66/64/52 64/62/52
f 61/65/53 59/59/53 63/61/53
f 64/62/54 60/60/54 62/66/54
f 61/65/55 57/57/55 59/59/55
f 60/60/56 58/58/56 62/66/56
f 61/65/57 55/55/57 57/57/57
f 58/58/58 56/56/58 62/66/58
f 61/65/59 53/53/59 55/55/59
f 56/56/60 54/54/60 62/66/60
f 61/65/61 51/49/61 53/53/61
f 54/54/62 52/51/62 62/66/62
f 61/65/63 49/50/63 51/49/63
f 52/51/64 50/52/64 62/66/64
f 89/67/65 174/68/65 176/69/65 91/70/65
f 176/69/66 175/71/66 90/72/66 91/70/66
f 87/73/67 172/74/67 174/68/67 89/67/67
f 175/71/68 173/75/68 88/76/68 90/72/68
f 85/77/69 170/78/69 172/74/69 87/73/69
f 173/75/70 171/79/70 86/80/70 88/76/70
f 83/81/71 168/82/71 170/78/71 85/77/71
f 171/79/72 169/83/72 84/84/72 86/80/72
f 81/85/73 166/86/73 168/82/73 83/81/73
f 169/83/74 167/87/74 82/88/74 84/84/74
f 79/89/75 92/90/75 146/91/75 164/92/75
f 147/93/76 93/94/76 80/95/76 165/96/76
f 92/90/77 94/97/77 148/98/77 146/91/77
f 149/99/78 95/100/78 93/94/78 147/93/78
f 94/97/79 96/101/79 150/102/79 148/98/79
f 151/103/80 97/104/80 95/100/80 149/99/80
f 96/101/81 98/105/81 152/106/81 150/102/81
f 153/107/82 99/108/82 97/104/82 151/103/82
f 98/105/83 100/109/83 154/110/83 152/106/83
f 155/111/84 101/112/84 99/108/84 153/107/84
f 100/109/85 102/113/85 156/114/85 154/110/85
f 157/115/86 103/116/86 101/112/86 155/111/86
f 102/113/87 104/117/87 158/118/87 156/114/87
f 159/119/88 105/120/88 103/116/88 157/115/88
f 104/117/89 106/121/89 160/122/89 158/118/89
f 161/123/90 107/124/90 105/120/90 159/119/90
f 106/121/91 108/125/91 162/126/91 160/122/91
f 163/127/92 109/128/92 107/124/92 161/123/92
f 108/125/93 67/129/93 68/130/93 162/126/93
f 68/130/94 67/129/94 109/128/94 163/127/94
f 110/131/95 128/132/95 160/122/95 162/126/95
f 161/123/96 129/133/96 111/134/96 163/127/96
f 128/132/97 179/135/97 158/118/97 160/122/97
f 159/119/98 180/136/98 129/133/98 161/123/98
f 126/137/99 156/114/99 158/118/99 179/135/99
f 159/119/100 157/115/100 127/138/100 180/136/100
f 124/139/101 154/110/101 156/114/101 126/137/101
f 157/115/102 155/111/102 125/140/102 127/138/102
f 122/141/103 152/106/103 154/110/103 124/139/103
f 155/111/104 153/107/104 123/142/104 125/140/104
f 120/143/105 150/102/105 152/106/105 122/141/105
f 153/107/106 151/103/106 121/144/106 123/142/106
f 118/145/107 148/98/107 150/102/107 120/143/107
f 151/103/108 149/99/108 119/146/108 121/144/108
f 116/147/109 146/91/109 148/98/109 118/145/109
f 149/99/110 147/93/110 117/148/110 119/146/110
f 114/149/111 164/92/111 146/91/111 116/147/111
f 147/93/112 165/96/112 115/150/112 117/148/112
f 114/149/113 181/151/113 177/152/113 164/92/113
f 177/152/114 182/153/114 115/150/114 165/96/114
f 110/131/115 162/126/115 68/130/115 112/154/115
f 68/130/116 163/127/116 111/134/116 113/155/116
f 112/154/117 68/130/117 178/156/117 183/157/117
f 178/156/118 68/130/118 113/155/118 184/158/118
f 177/152/119 181/151/119 183/157/119 178/156/119
f 184/158/120 182/153/120 177/152/120 178/156/120
f 135/159/121 137/160/121 176/69/121 174/68/121
f 176/69/122 137/160/122 136/161/122 175/71/122
f 133/162/123 135/159/123 174/68/123 172/74/123
f 175/71/124 136/161/124 134/163/124 173/75/124
f 131/164/125 133/162/125 172/74/125 170/78/125
f 173/75/126 134/163/126 132/165/126 171/79/126
f 166/86/127 187/166/127 185/167/127 168/82/127
f 186/168/128 188/169/128 167/87/128 169/83/128
f 131/164/129 170/78/129 168/82/129 185/167/129
f 169/83/130 171/79/130 132/165/130 186/168/130
f 144/170/131 190/171/131 189/172/131 187/166/131
f 189/172/132 190/171/132 145/173/132 188/169/132
f 185/167/133 187/166/133 189/172/133 69/174/133
f 189/172/134 188/169/134 186/168/134 69/174/134
f 130/175/135 131/164/135 185/167/135 69/174/135
f 186/168/135 132/165/135 130/175/135 69/174/135
f 142/176/136 193/177/136 191/178/136 144/170/136
f 192/179/137 194/180/137 143/181/137 145/173/137
f 140/182/138 195/183/138 193/177/138 142/176/138
f 194/180/139 196/184/139 141/185/139 143/181/139
f 139/186/140 197/187/140 195/183/140 140/182/140
f 196/184/141 198/188/141 139/186/141 141/185/141
f 138/189/142 71/190/142 197/187/142 139/186/142
f 198/188/143 71/190/143 138/189/143 139/186/143
f 190/171/144 144/170/144 191/178/144 70/191/144
f 192/179/145 145/173/145 190/171/145 70/191/145
f 70/191/146 191/178/146 206/192/146 208/193/146
f 207/194/147 192/179/147 70/191/147 208/193/147
f 71/190/148 199/195/148 200/196/148 197/187/148
f 201/197/149 199/195/149 71/190/149 198/188/149
f 197/187/150 200/196/150 202/198/150 195/183/150
f 203/199/151 201/197/151 198/188/151 196/184/151
f 195/183/152 202/198/152 204/200/152 193/177/152
f 205/201/153 203/199/153 196/184/153 194/180/153
f 193/177/154 204/200/154 206/192/154 191/178/154
f 207/194/155 205/201/155 194/180/155 192/179/155
f 199/195/156 204/200/156 202/198/156 200/196/156
f 203/199/157 205/201/157 199/195/157 201/197/157
f 199/195/158 208/193/158 206/192/158 204/200/158
f 207/194/159 208/193/159 199/195/159 205/201/159
f 139/186/160 140/182/160 164/92/160 177/152/160
f 165/96/161 141/185/161 139/186/161 177/152/161
f 140/182/162 142/176/162 211/202/162 164/92/162
f 212/203/163 143/181/163 141/185/163 165/96/163
f 142/176/164 144/170/164 213/204/164 211/202/164
f 214/205/165 145/173/165 143/181/165 212/203/165
f 144/170/166 187/166/166 166/86/166 213/204/166
f 167/87/167 188/169/167 145/173/167 214/205/167
f 81/85/168 209/206/168 213/204/168 166/86/168
f 214/205/169 210/207/169 82/88/169 167/87/169
f 209/206/170 215/208/170 211/202/170 213/204/170
f 212/203/171 216/209/171 210/207/171 214/205/171
f 79/89/172 164/92/172 211/202/172 215/208/172
f 212/203/173 165/96/173 80/95/173 216/209/173
f 131/164/174 130/175/174 72/210/174 222/211/174
f 72/210/175 130/175/175 132/165/175 223/212/175
f 133/162/176 131/164/176 222/211/176 220/213/176
f 223/212/177 132/165/177 134/163/177 221/214/177
f 135/159/178 133/162/178 220/213/178 218/215/178
f 221/214/179 134/163/179 136/161/179 219/216/179
f 137/160/180 135/159/180 218/215/180 217/217/180
f 219/216/181 136/161/181 137/160/181 217/217/181
f 217/217/182 218/215/182 229/218/182 231/219/182
f 230/220/183 219/216/183 217/217/183 231/219/183
f 218/215/184 220/213/184 227/221/184 229/218/184
f 228/222/185 221/214/185 219/216/185 230/220/185
f 220/213/186 222/211/186 225/223/186 227/221/186
f 226/224/187 223/212/187 221/214/187 228/222/187
f 222/211/188 72/210/188 224/225/188 225/223/188
f 224/225/189 72/210/189 223/212/189 226/224/189
f 224/225/190 231/219/190 229/218/190 225/223/190
f 230/220/191 231/219/191 224/225/191 226/224/191
f 225/223/192 229/218/192 227/221/192
f 228/222/193 230/220/193 226/224/193
f 183/157/194 181/151/194 234/226/194 232/227/194
f 235/228/195 182/153/195 184/158/195 233/229/195
f 112/154/196 183/157/196 232/227/196 254/230/196
f 233/229/197 184/158/197 113/155/197 255/231/197
f 110/131/198 112/154/198 254/230/198 256/232/198
f 255/231/199 113/155/199 111/134/199 257/233/199
f 181/151/200 114/149/200 252/234/200 234/226/200
f 253/235/201 115/150/201 182/153/201 235/228/201
f 114/149/202 116/147/202 250/236/202 252/234/202
f 251/237/203 117/148/203 115/150/203 253/235/203
f 116/147/204 118/145/204 248/238/204 250/236/204
f 249/239/205 119/146/205 117/148/205 251/237/205
f 118/145/206 120/143/206 246/240/206 248/238/206
f 247/241/207 121/144/207 119/146/207 249/239/207
f 120/143/208 122/141/208 244/242/208 246/240/208
f 245/243/209 123/142/209 121/144/209 247/241/209
f 122/141/210 124/139/210 242/244/210 244/242/210
f 243/245/211 125/140/211 123/142/211 245/243/211
f 124/139/212 126/137/212 240/246/212 242/244/212
f 241/247/213 127/138/213 125/140/213 243/245/213
f 126/137/214 179/135/214 236/248/214 240/246/214
f 237/249/215 180/136/215 127/138/215 241/247/215
f 179/135/216 128/132/216 238/250/216 236/248/216
f 239/251/217 129/133/217 180/136/217 237/249/217
f 128/132/218 110/131/218 256/232/218 238/250/218
f 257/233/219 111/134/219 129/133/219 239/251/219
f 238/250/220 256/232/220 258/252/220 276/253/220
f 259/254/221 257/233/221 239/251/221 277/255/221
f 236/248/222 238/250/222 276/253/222 278/256/222
f 277/255/223 239/251/223 237/249/223 279/257/223
f 240/246/224 236/248/224 278/256/224 274/258/224
f 279/257/225 237/249/225 241/247/225 275/259/225
f 242/244/226 240/246/226 274/258/226 272/260/226
f 275/259/227 241/247/227 243/245/227 273/261/227
f 244/242/228 242/244/228 272/260/228 270/262/228
f 273/261/229 243/245/229 245/243/229 271/263/229
f 246/240/230 244/242/230 270/262/230 268/264/230
f 271/263/231 245/243/231 247/241/231 269/265/231
f 248/238/232 246/240/232 268/264/232 266/266/232
f 269/265/233 247/241/233 249/239/233 267/267/233
f 250/236/234 248/238/234 266/266/234 264/268/234
f 267/267/235 249/239/235 251/237/235 265/269/235
f 252/234/236 250/236/236 264/268/236 262/270/236
f 265/269/237 251/237/237 253/235/237 263/271/237
f 234/226/238 252/234/238 262/270/238 280/272/238
f 263/271/239 253/235/239 235/228/239 281/273/239
f 256/232/240 254/230/240 260/274/240 258/252/240
f 261/275/241 255/231/241 257/233/241 259/254/241
f 254/230/242 232/227/242 282/276/242 260/274/242
f 283/277/243 233/229/243 255/231/243 261/275/243
f 232/227/244 234/226/244 280/272/244 282/276/244
f 281/273/245 235/228/245 233/229/245 283/277/245
f 67/129/246 108/125/246 284/278/246 73/279/246
f 285/280/247 109/128/247 67/129/247 73/279/247
f 108/125/248 106/121/248 286/281/248 284/278/248
f 287/282/249 107/124/249 109/128/249 285/280/249
f 106/121/250 104/117/250 288/283/250 286/281/250
f 289/284/251 105/120/251 107/124/251 287/282/251
f 104/117/252 102/113/252 290/285/252 288/283/252
f 291/286/253 103/116/253 105/120/253 289/284/253
f 102/113/254 100/109/254 292/287/254 290/285/254
f 293/288/255 101/112/255 103/116/255 291/286/255
f 100/109/256 98/105/256 294/289/256 292/287/256
f 295/290/257 99/108/257 101/112/257 293/288/257
f 98/105/258 96/101/258 296/291/258 294/289/258
f 297/292/259 97/104/259 99/108/259 295/290/259
f 96/101/260 94/97/260 298/293/260 296/291/260
f 299/294/261 95/100/261 97/104/261 297/292/261
f 94/97/262 92/90/262 300/295/262 298/293/262
f 301/296/263 93/94/263 95/100/263 299/294/263
f 308/297/264 309/298/264 328/299/264 338/300/264
f 329/301/265 309/302/265 308/303/265 339/304/265
f 307/305/266 308/297/266 338/300/266 336/306/266
f 339/304/267 308/303/267 307/307/267 337/308/267
f 306/309/268 307/305/268 336/306/268 340/310/268
f 337/308/269 307/307/269 306/309/269 341/311/269
f 89/67/270 91/70/270 306/309/270 340/310/270
f 306/309/271 91/70/271 90/72/271 341/311/271
f 87/73/272 89/67/272 340/310/272 334/312/272
f 341/311/273 90/72/273 88/76/273 335/313/273
f 85/77/274 87/73/274 334/312/274 330/314/274
f 335/313/275 88/76/275 86/80/275 331/315/275
f 83/81/276 85/77/276 330/314/276 332/316/276
f 331/315/277 86/80/277 84/84/277 333/317/277
f 330/314/278 336/306/278 338/300/278 332/316/278
f 339/304/279 337/308/279 331/315/279 333/317/279
f 330/314/280 334/312/280 340/310/280 336/306/280
f 341/311/281 335/313/281 331/315/281 337/308/281
f 326/318/282 332/316/282 338/300/282 328/299/282
f 339/304/283 333/317/283 327/319/283 329/301/283
f 81/85/284 83/81/284 332/316/284 326/318/284
f 333/317/285 84/84/285 82/88/285 327/319/285
f 209/206/286 342/320/286 344/321/286 215/208/286
f 345/322/287 343/323/287 210/207/287 216/209/287
f 81/85/288 326/318/288 342/320/288 209/206/288
f 343/323/289 327/319/289 82/88/289 210/207/289
f 79/89/290 215/208/290 344/321/290 346/324/290
f 345/322/291 216/209/291 80/95/291 347/325/291
f 79/89/292 346/324/292 300/295/292 92/90/292
f 301/296/293 347/325/293 80/95/293 93/94/293
f 77/326/294 324/327/294 352/328/294 304/329/294
f 353/330/295 325/331/295 77/332/295 304/333/295
f 304/329/296 352/328/296 350/334/296 78/335/296
f 351/336/297 353/330/297 304/333/297 78/337/297
f 78/335/298 350/334/298 348/338/298 305/339/298
f 349/340/299 351/336/299 78/337/299 305/341/299
f 305/339/300 348/338/300 328/299/300 309/298/300
f 329/301/301 349/340/301 305/341/301 309/302/301
f 326/318/302 328/299/302 348/338/302 342/320/302
f 349/340/303 329/301/303 327/319/303 343/323/303
f 296/291/304 298/293/304 318/342/304 310/343/304
f 319/344/305 299/294/305 297/292/305 311/345/305
f 76/346/306 316/347/306 324/327/306 77/326/306
f 325/331/307 317/348/307 76/349/307 77/332/307
f 302/350/308 358/351/308 356/352/308 303/353/308
f 357/354/309 359/355/309 302/356/309 303/357/309
f 303/353/310 356/352/310 354/358/310 75/359/310
f 355/360/311 357/354/311 303/357/311 75/361/311
f 75/359/312 354/358/312 316/347/312 76/346/312
f 317/348/313 355/360/313 75/361/313 76/349/313
f 292/362/314 294/289/314 362/363/314 364/364/314
f 363/365/315 295/290/315 293/366/315 365/367/315
f 364/364/316 362/363/316 368/368/316 366/369/316
f 369/370/317 363/365/317 365/367/317 367/371/317
f 366/369/318 368/368/318 370/372/318 372/373/318
f 371/374/319 369/370/319 367/371/319 373/375/319
f 372/373/320 370/372/320 376/376/320 374/377/320
f 377/378/321 371/374/321 373/375/321 375/379/321
f 314/380/322 378/381/322 374/377/322 376/376/322
f 375/379/323 379/382/323 315/383/323 377/378/323
f 316/347/324 354/358/324 374/377/324 378/381/324
f 375/379/325 355/360/325 317/348/325 379/382/325
f 354/358/326 356/352/326 372/373/326 374/377/326
f 373/375/327 357/354/327 355/360/327 375/379/327
f 356/352/328 358/351/328 366/369/328 372/373/328
f 367/371/329 359/355/329 357/354/329 373/375/329
f 358/351/330 360/384/330 364/364/330 366/369/330
f 365/367/331 361/385/331 359/355/331 367/371/331
f 290/386/332 292/362/332 364/364/332 360/384/332
f 365/367/333 293/366/333 291/387/333 361/385/333
f 74/388/334 360/384/334 358/351/334 302/350/334
f 359/355/335 361/385/335 74/389/335 302/356/335
f 284/390/336 286/391/336 288/392/336 290/386/336
f 289/393/337 287/394/337 285/395/337 291/387/337
f 284/390/338 290/386/338 360/384/338 74/388/338
f 361/385/339 291/387/339 285/395/339 74/389/339
f 73/396/340 284/390/340 74/388/340
f 74/389/341 285/395/341 73/397/341
f 294/289/342 296/291/342 310/343/342 362/363/342
f 311/345/343 297/292/343 295/290/343 363/365/343
f 310/343/344 312/398/344 368/368/344 362/363/344
f 369/370/345 313/399/345 311/345/345 363/365/345
f 312/398/346 382/400/346 370/372/346 368/368/346
f 371/374/347 383/401/347 313/399/347 369/370/347
f 314/380/348 376/376/348 370/372/348 382/400/348
f 371/374/349 377/378/349 315/383/349 383/401/349
f 348/338/350 350/334/350 386/402/350 384/403/350
f 387/404/351 351/336/351 349/340/351 385/405/351
f 318/342/352 384/403/352 386/402/352 320/406/352
f 387/404/353 385/405/353 319/344/353 321/407/353
f 298/293/354 300/295/354 384/403/354 318/342/354
f 385/405/355 301/296/355 299/294/355 319/344/355
f 300/295/356 344/321/356 342/320/356 384/403/356
f 343/323/357 345/322/357 301/296/357 385/405/357
f 342/320/358 348/338/358 384/403/358
f 385/405/359 349/340/359 343/323/359
f 300/295/360 346/324/360 344/321/360
f 345/322/361 347/325/361 301/296/361
f 314/380/362 322/408/362 380/409/362 378/381/362
f 381/410/363 323/411/363 315/383/363 379/382/363
f 316/347/364 378/381/364 380/409/364 324/327/364
f 381/410/365 379/382/365 317/348/365 325/331/365
f 320/406/366 386/402/366 380/409/366 322/408/366
f 381/410/367 387/404/367 321/407/367 323/411/367
f 350/334/368 352/328/368 380/409/368 386/402/368
f 381/410/369 353/330/369 351/336/369 387/404/369
f 324/327/370 380/409/370 352/328/370
f 353/330/371 381/410/371 325/331/371
f 400/412/372 388/413/372 414/414/372 402/415/372
f 415/416/373 389/417/373 401/418/373 403/419/373
f 400/412/374 402/415/374 404/420/374 398/421/374
f 405/422/375 403/419/375 401/418/375 399/423/375
f 398/421/376 404/420/376 406/424/376 396/425/376
f 407/426/377 405/422/377 399/423/377 397/427/377
f 396/425/378 406/424/378 408/428/378 394/429/378
f 409/430/379 407/426/379 397/427/379 395/431/379
f 394/429/380 408/428/380 410/432/380 392/433/380
f 411/434/381 409/430/381 395/431/381 393/435/381
f 392/433/382 410/432/382 412/436/382 390/437/382
f 413/438/383 411/434/383 393/435/383 391/439/383
f 410/432/384 420/440/384 418/441/384 412/436/384
f 419/442/385 421/443/385 411/434/385 413/438/385
f 408/428/386 422/444/386 420/440/386 410/432/386
f 421/443/387 423/445/387 409/430/387 411/434/387
f 406/424/388 424/446/388 422/444/388 408/428/388
f 423/445/389 425/447/389 407/426/389 409/430/389
f 404/420/390 426/448/390 424/446/390 406/424/390
f 425/447/391 427/449/391 405/422/391 407/426/391
f 402/415/392 428/450/392 426/448/392 404/420/392
f 427/449/393 429/451/393 403/419/393 405/422/393
f 402/415/394 414/414/394 416/452/394 428/450/394
f 417/453/395 415/416/395 403/419/395 429/451/395
f 318/342/396 320/406/396 444/454/396 442/455/396
f 445/456/397 321/407/397 319/344/397 443/457/397
f 320/458/398 390/437/398 412/436/398 444/459/398
f 413/438/399 391/439/399 321/460/399 445/461/399
f 310/343/400 318/342/400 442/455/400 312/398/400
f 443/457/401 319/344/401 311/345/401 313/399/401
f 382/462/402 430/463/402 414/414/402 388/413/402
f 415/416/403 431/464/403 383/465/403 389/417/403
f 412/436/404 418/441/404 440/466/404 444/459/404
f 441/467/405 419/442/405 413/438/405 445/461/405
f 438/468/406 446/469/406 444/459/406 440/466/406
f 445/461/407 447/470/407 439/471/407 441/467/407
f 434/472/408 446/469/408 438/468/408 436/473/408
f 439/471/409 447/470/409 435/474/409 437/475/409
f 432/476/410 448/477/410 446/469/410 434/472/410
f 447/470/411 449/478/411 433/479/411 435/474/411
f 430/463/412 448/477/412 432/476/412 450/480/412
f 433/479/413 449/478/413 431/464/413 451/481/413
f 414/414/414 430/463/414 450/480/414 416/452/414
f 451/481/415 431/464/415 415/416/415 417/453/415
f 312/398/416 448/482/416 430/483/416 382/400/416
f 431/484/417 449/485/417 313/399/417 383/401/417
f 312/398/418 442/455/418 446/486/418 448/482/418
f 447/487/419 443/457/419 313/399/419 449/485/419
f 442/455/420 444/454/420 446/486/420
f 447/487/421 445/456/421 443/457/421
f 416/452/422 450/480/422 452/488/422 476/489/422
f 453/490/423 451/481/423 417/453/423 477/491/423
f 450/480/424 432/476/424 462/492/424 452/488/424
f 463/493/425 433/479/425 451/481/425 453/490/425
f 432/476/426 434/472/426 460/494/426 462/492/426
f 461/495/427 435/474/427 433/479/427 463/493/427
f 434/472/428 436/473/428 458/496/428 460/494/428
f 459/497/429 437/475/429 435/474/429 461/495/429
f 436/473/430 438/468/430 456/498/430 458/496/430
f 457/499/431 439/471/431 437/475/431 459/497/431
f 438/468/432 440/466/432 454/500/432 456/498/432
f 455/501/433 441/467/433 439/471/433 457/499/433
f 440/466/434 418/441/434 474/502/434 454/500/434
f 475/503/435 419/442/435 441/467/435 455/501/435
f 428/450/436 416/452/436 476/489/436 464/504/436
f 477/491/437 417/453/437 429/451/437 465/505/437
f 426/448/438 428/450/438 464/504/438 466/506/438
f 465/505/439 429/451/439 427/449/439 467/507/439
f 424/446/440 426/448/440 466/506/440 468/508/440
f 467/507/441 427/449/441 425/447/441 469/509/441
f 422/444/442 424/446/442 468/508/442 470/510/442
f 469/509/443 425/447/443 423/445/443 471/511/443
f 420/440/444 422/444/444 470/510/444 472/512/444
f 471/511/445 423/445/445 421/443/445 473/513/445
f 418/441/446 420/440/446 472/512/446 474/502/446
f 473/513/447 421/443/447 419/442/447 475/503/447
f 458/496/448 456/498/448 480/514/448 478/515/448
f 481/516/449 457/499/449 459/497/449 479/517/449
f 478/515/450 480/514/450 482/518/450 484/519/450
f 483/520/451 481/516/451 479/517/451 485/521/451
f 484/519/452 482/518/452 488/522/452 486/523/452
f 489/524/453 483/520/453 485/521/453 487/525/453
f 486/523/454 488/522/454 490/526/454 492/527/454
f 491/528/455 489/524/455 487/525/455 493/529/455
f 464/504/456 476/489/456 486/523/456 492/527/456
f 487/525/457 477/491/457 465/505/457 493/529/457
f 452/488/458 484/519/458 486/523/458 476/489/458
f 487/525/459 485/521/459 453/490/459 477/491/459
f 452/488/460 462/492/460 478/515/460 484/519/460
f 479/517/461 463/493/461 453/490/461 485/521/461
f 458/496/462 478/515/462 462/492/462 460/494/462
f 463/493/463 479/517/463 459/497/463 461/495/463
f 454/500/464 474/502/464 480/514/464 456/498/464
f 481/516/465 475/503/465 455/501/465 457/499/465
f 472/512/466 482/518/466 480/514/466 474/502/466
f 481/516/467 483/520/467 473/513/467 475/503/467
f 470/510/468 488/522/468 482/518/468 472/512/468
f 483/520/469 489/524/469 471/511/469 473/513/469
f 468/508/470 490/526/470 488/522/470 470/510/470
f 489/524/471 491/528/471 469/509/471 471/511/471
f 466/506/472 492/527/472 490/526/472 468/508/472
f 491/528/473 493/529/473 467/507/473 469/509/473
f 464/504/474 492/527/474 466/506/474
f 467/507/475 493/529/475 465/505/475
f 392/433/476 390/437/476 504/530/476 502/531/476
f 505/532/477 391/439/477 393/435/477 503/533/477
f 394/429/478 392/433/478 502/531/478 500/534/478
f 503/533/479 393/435/479 395/431/479 501/535/479
f 396/425/480 394/429/480 500/534/480 498/536/480
f 501/535/481 395/431/481 397/427/481 499/537/481
f 398/538/482 396/425/482 498/536/482 496/539/482
f 499/537/483 397/427/483 399/540/483 497/541/483
f 400/542/484 398/538/484 496/539/484 494/543/484
f 497/541/485 399/540/485 401/544/485 495/545/485
f 388/546/486 400/542/486 494/543/486 506/547/486
f 495/545/487 401/544/487 389/548/487 507/549/487
f 494/543/488 502/531/488 504/530/488 506/547/488
f 505/532/489 503/533/489 495/545/489 507/549/489
f 494/543/490 496/539/490 500/534/490 502/531/490
f 501/535/491 497/541/491 495/545/491 503/533/491
f 496/539/492 498/536/492 500/534/492
f 501/535/493 499/537/493 497/541/493
f 314/550/494 382/551/494 388/546/494 506/547/494
f 389/548/495 383/552/495 315/553/495 507/549/495
f 314/550/496 506/547/496 504/530/496 322/554/496
f 505/532/497 507/549/497 315/553/497 323/555/497
f 320/458/498 322/554/498 504/530/498 390/437/498
f 505/532/499 323/555/499 321/460/499 391/439/499
